%TF.GenerationSoftware,KiCad,Pcbnew,9.0.2*%
%TF.CreationDate,2025-07-03T20:52:15-07:00*%
%TF.ProjectId,solder,736f6c64-6572-42e6-9b69-6361645f7063,rev?*%
%TF.SameCoordinates,Original*%
%TF.FileFunction,Legend,Top*%
%TF.FilePolarity,Positive*%
%FSLAX46Y46*%
G04 Gerber Fmt 4.6, Leading zero omitted, Abs format (unit mm)*
G04 Created by KiCad (PCBNEW 9.0.2) date 2025-07-03 20:52:15*
%MOMM*%
%LPD*%
G01*
G04 APERTURE LIST*
%ADD10C,0.200000*%
%ADD11C,0.000000*%
%ADD12C,0.120000*%
G04 APERTURE END LIST*
D10*
X130993958Y-120940300D02*
X130993958Y-116940300D01*
X130993958Y-118845062D02*
X133279673Y-118845062D01*
X133279673Y-120940300D02*
X133279673Y-116940300D01*
X134993958Y-119797443D02*
X136898720Y-119797443D01*
X134613006Y-120940300D02*
X135946339Y-116940300D01*
X135946339Y-116940300D02*
X137279673Y-120940300D01*
X140898720Y-120559347D02*
X140708244Y-120749824D01*
X140708244Y-120749824D02*
X140136815Y-120940300D01*
X140136815Y-120940300D02*
X139755863Y-120940300D01*
X139755863Y-120940300D02*
X139184434Y-120749824D01*
X139184434Y-120749824D02*
X138803482Y-120368871D01*
X138803482Y-120368871D02*
X138613005Y-119987919D01*
X138613005Y-119987919D02*
X138422529Y-119226014D01*
X138422529Y-119226014D02*
X138422529Y-118654585D01*
X138422529Y-118654585D02*
X138613005Y-117892681D01*
X138613005Y-117892681D02*
X138803482Y-117511728D01*
X138803482Y-117511728D02*
X139184434Y-117130776D01*
X139184434Y-117130776D02*
X139755863Y-116940300D01*
X139755863Y-116940300D02*
X140136815Y-116940300D01*
X140136815Y-116940300D02*
X140708244Y-117130776D01*
X140708244Y-117130776D02*
X140898720Y-117321252D01*
X142613005Y-120940300D02*
X142613005Y-116940300D01*
X144898720Y-120940300D02*
X143184434Y-118654585D01*
X144898720Y-116940300D02*
X142613005Y-119226014D01*
X133279673Y-126999123D02*
X133089197Y-127189600D01*
X133089197Y-127189600D02*
X132517768Y-127380076D01*
X132517768Y-127380076D02*
X132136816Y-127380076D01*
X132136816Y-127380076D02*
X131565387Y-127189600D01*
X131565387Y-127189600D02*
X131184435Y-126808647D01*
X131184435Y-126808647D02*
X130993958Y-126427695D01*
X130993958Y-126427695D02*
X130803482Y-125665790D01*
X130803482Y-125665790D02*
X130803482Y-125094361D01*
X130803482Y-125094361D02*
X130993958Y-124332457D01*
X130993958Y-124332457D02*
X131184435Y-123951504D01*
X131184435Y-123951504D02*
X131565387Y-123570552D01*
X131565387Y-123570552D02*
X132136816Y-123380076D01*
X132136816Y-123380076D02*
X132517768Y-123380076D01*
X132517768Y-123380076D02*
X133089197Y-123570552D01*
X133089197Y-123570552D02*
X133279673Y-123761028D01*
X136898720Y-127380076D02*
X134993958Y-127380076D01*
X134993958Y-127380076D02*
X134993958Y-123380076D01*
X138232053Y-123380076D02*
X138232053Y-126618171D01*
X138232053Y-126618171D02*
X138422530Y-126999123D01*
X138422530Y-126999123D02*
X138613006Y-127189600D01*
X138613006Y-127189600D02*
X138993958Y-127380076D01*
X138993958Y-127380076D02*
X139755863Y-127380076D01*
X139755863Y-127380076D02*
X140136815Y-127189600D01*
X140136815Y-127189600D02*
X140327292Y-126999123D01*
X140327292Y-126999123D02*
X140517768Y-126618171D01*
X140517768Y-126618171D02*
X140517768Y-123380076D01*
X143755863Y-125284838D02*
X144327291Y-125475314D01*
X144327291Y-125475314D02*
X144517768Y-125665790D01*
X144517768Y-125665790D02*
X144708244Y-126046742D01*
X144708244Y-126046742D02*
X144708244Y-126618171D01*
X144708244Y-126618171D02*
X144517768Y-126999123D01*
X144517768Y-126999123D02*
X144327291Y-127189600D01*
X144327291Y-127189600D02*
X143946339Y-127380076D01*
X143946339Y-127380076D02*
X142422529Y-127380076D01*
X142422529Y-127380076D02*
X142422529Y-123380076D01*
X142422529Y-123380076D02*
X143755863Y-123380076D01*
X143755863Y-123380076D02*
X144136815Y-123570552D01*
X144136815Y-123570552D02*
X144327291Y-123761028D01*
X144327291Y-123761028D02*
X144517768Y-124141980D01*
X144517768Y-124141980D02*
X144517768Y-124522933D01*
X144517768Y-124522933D02*
X144327291Y-124903885D01*
X144327291Y-124903885D02*
X144136815Y-125094361D01*
X144136815Y-125094361D02*
X143755863Y-125284838D01*
X143755863Y-125284838D02*
X142422529Y-125284838D01*
D11*
%TO.C,G\u002A\u002A\u002A*%
G36*
X137816533Y-40722663D02*
G01*
X138908311Y-40841663D01*
X139838220Y-41075823D01*
X140710587Y-41461571D01*
X141629742Y-42035338D01*
X141683536Y-42072940D01*
X142347618Y-42589895D01*
X142919568Y-43159636D01*
X143439056Y-43834488D01*
X143945756Y-44666776D01*
X144479337Y-45708826D01*
X144546274Y-45848806D01*
X145172412Y-47321424D01*
X145690846Y-48891566D01*
X146110599Y-50598299D01*
X146440694Y-52480691D01*
X146690156Y-54577809D01*
X146767963Y-55467658D01*
X146846724Y-56355054D01*
X146936588Y-57201247D01*
X147030048Y-57945950D01*
X147119597Y-58528875D01*
X147191438Y-58868205D01*
X147289570Y-59276697D01*
X147415683Y-59888738D01*
X147556095Y-60633426D01*
X147697124Y-61439858D01*
X147752833Y-61777344D01*
X147946421Y-62914374D01*
X148145217Y-63942712D01*
X148365581Y-64927510D01*
X148623872Y-65933921D01*
X148936450Y-67027098D01*
X149319674Y-68272192D01*
X149617375Y-69203027D01*
X150252445Y-71237681D01*
X150767352Y-73039916D01*
X151160670Y-74604454D01*
X151427123Y-75903944D01*
X151525925Y-76384374D01*
X151625174Y-76729558D01*
X151705745Y-76875156D01*
X151715932Y-76875529D01*
X151854418Y-76771776D01*
X152154551Y-76515001D01*
X152574971Y-76141515D01*
X153074317Y-75687631D01*
X153185079Y-75585737D01*
X153772441Y-75049968D01*
X154364572Y-74519619D01*
X154891978Y-74056376D01*
X155280909Y-73725428D01*
X155920951Y-73114217D01*
X156646928Y-72271137D01*
X157439149Y-71221030D01*
X158277920Y-69988740D01*
X158431760Y-69750376D01*
X158898282Y-69079194D01*
X159470495Y-68338904D01*
X160052480Y-67651220D01*
X160285038Y-67398655D01*
X160776050Y-66865579D01*
X161244765Y-66325557D01*
X161625384Y-65855876D01*
X161791617Y-65628983D01*
X162146372Y-65199945D01*
X162465621Y-64987741D01*
X162719701Y-65004633D01*
X162855310Y-65189242D01*
X162921113Y-65548169D01*
X162944868Y-66135321D01*
X162930448Y-66905153D01*
X162881728Y-67812118D01*
X162802580Y-68810670D01*
X162696880Y-69855265D01*
X162568500Y-70900355D01*
X162421314Y-71900396D01*
X162259197Y-72809841D01*
X162171875Y-73224730D01*
X161972308Y-73996222D01*
X161721859Y-74794151D01*
X161459478Y-75499672D01*
X161330336Y-75792489D01*
X161089270Y-76340390D01*
X160802490Y-77060136D01*
X160505920Y-77858252D01*
X160235485Y-78641264D01*
X160235480Y-78641278D01*
X159834815Y-79752519D01*
X159334274Y-80979331D01*
X158768843Y-82246627D01*
X158173503Y-83479321D01*
X157583239Y-84602327D01*
X157033033Y-85540559D01*
X156988247Y-85610921D01*
X156470659Y-86331022D01*
X155840290Y-87074213D01*
X155151193Y-87787460D01*
X154457418Y-88417732D01*
X153813018Y-88911997D01*
X153345218Y-89185229D01*
X152706348Y-89589685D01*
X152265582Y-90111086D01*
X151970762Y-90505455D01*
X151551410Y-90986920D01*
X151091715Y-91459560D01*
X151031635Y-91517007D01*
X150327208Y-92099826D01*
X149525517Y-92590434D01*
X148571330Y-93016494D01*
X147409415Y-93405663D01*
X147059871Y-93506062D01*
X146444889Y-93696745D01*
X145881105Y-93904898D01*
X145459108Y-94095851D01*
X145347885Y-94161270D01*
X145049337Y-94406449D01*
X144921433Y-94682462D01*
X144896792Y-95041910D01*
X144846105Y-95714286D01*
X144707003Y-96562198D01*
X144496176Y-97504252D01*
X144230317Y-98459057D01*
X144134239Y-98760378D01*
X143985505Y-99234699D01*
X143885681Y-99641321D01*
X143826939Y-100053560D01*
X143801447Y-100544733D01*
X143801376Y-101188157D01*
X143812382Y-101773980D01*
X143826784Y-102541811D01*
X143826173Y-103082570D01*
X143804756Y-103446629D01*
X143756739Y-103684358D01*
X143676329Y-103846128D01*
X143558458Y-103981579D01*
X143234548Y-104194542D01*
X142788510Y-104362041D01*
X142647993Y-104394095D01*
X142052827Y-104476250D01*
X141301257Y-104538204D01*
X140475362Y-104577593D01*
X139657222Y-104592056D01*
X138928916Y-104579229D01*
X138372524Y-104536749D01*
X138264619Y-104520283D01*
X137801745Y-104409491D01*
X137187205Y-104224543D01*
X136525630Y-103997921D01*
X136252051Y-103895481D01*
X135263290Y-103490825D01*
X134512834Y-103116028D01*
X133969304Y-102735152D01*
X133601318Y-102312262D01*
X133377498Y-101811421D01*
X133266462Y-101196694D01*
X133236827Y-100442485D01*
X133271160Y-99634002D01*
X133365005Y-98779947D01*
X133504630Y-97960398D01*
X133676302Y-97255437D01*
X133866291Y-96745145D01*
X133873138Y-96731726D01*
X134023661Y-96422443D01*
X134017710Y-96270434D01*
X133811287Y-96197425D01*
X133549122Y-96155312D01*
X133124590Y-96078907D01*
X132777958Y-95998964D01*
X132749672Y-95990768D01*
X132541179Y-95999343D01*
X132264498Y-96158275D01*
X131874946Y-96496161D01*
X131708688Y-96657045D01*
X131053598Y-97323598D01*
X130348569Y-98077149D01*
X129648757Y-98855707D01*
X129009315Y-99597278D01*
X128485399Y-100239871D01*
X128277037Y-100514172D01*
X127645403Y-101281803D01*
X126952070Y-101962323D01*
X126249847Y-102512543D01*
X125591539Y-102889274D01*
X125212492Y-103020590D01*
X124536475Y-103107696D01*
X123940368Y-103013729D01*
X123360724Y-102716204D01*
X122734097Y-102192633D01*
X122652495Y-102113315D01*
X122094248Y-101499384D01*
X121512260Y-100750141D01*
X120957174Y-99941094D01*
X120479631Y-99147754D01*
X120130273Y-98445629D01*
X120043097Y-98222543D01*
X119795062Y-97176281D01*
X119812736Y-96189392D01*
X120099417Y-95247998D01*
X120658402Y-94338224D01*
X121082625Y-93846803D01*
X121592517Y-93273366D01*
X122140658Y-92597714D01*
X122619129Y-91953629D01*
X122674684Y-91873194D01*
X123056856Y-91354921D01*
X123448735Y-90891893D01*
X123784282Y-90560051D01*
X123881687Y-90485216D01*
X124185827Y-90231935D01*
X124591328Y-89829311D01*
X125029417Y-89347350D01*
X125214766Y-89128208D01*
X126067216Y-88094919D01*
X125688801Y-85450066D01*
X125556791Y-84491379D01*
X125429516Y-83502010D01*
X125316796Y-82563053D01*
X125228455Y-81755606D01*
X125183550Y-81278436D01*
X125114284Y-80590333D01*
X125028102Y-79946049D01*
X124937659Y-79432029D01*
X124878738Y-79196469D01*
X124828575Y-78895410D01*
X124787232Y-78363716D01*
X124754810Y-77648209D01*
X124731410Y-76795714D01*
X124717133Y-75853053D01*
X124712079Y-74867051D01*
X124716350Y-73884529D01*
X124730047Y-72952312D01*
X124753270Y-72117223D01*
X124786120Y-71426085D01*
X124828698Y-70925721D01*
X124860497Y-70729803D01*
X124990927Y-70343636D01*
X125179336Y-70163432D01*
X125312000Y-70128202D01*
X125509198Y-70120440D01*
X125588499Y-70219702D01*
X125580343Y-70494791D01*
X125557640Y-70683393D01*
X125399616Y-72135912D01*
X125291748Y-73591717D01*
X125234188Y-75005569D01*
X125227090Y-76332231D01*
X125270606Y-77526463D01*
X125364890Y-78543027D01*
X125510094Y-79336685D01*
X125528141Y-79404666D01*
X125625564Y-79903169D01*
X125700734Y-80562224D01*
X125741463Y-81264967D01*
X125745269Y-81486633D01*
X125772017Y-82062044D01*
X125841309Y-82760894D01*
X125944447Y-83537633D01*
X126072736Y-84346706D01*
X126217478Y-85142562D01*
X126369976Y-85879648D01*
X126521533Y-86512411D01*
X126663454Y-86995299D01*
X126787041Y-87282760D01*
X126863258Y-87342522D01*
X127092597Y-87236552D01*
X127408370Y-87037664D01*
X127430740Y-87021868D01*
X127804851Y-86821010D01*
X128174114Y-86723562D01*
X128460585Y-86738369D01*
X128586320Y-86874273D01*
X128587100Y-86890677D01*
X128475106Y-87056990D01*
X128181802Y-87300010D01*
X127779834Y-87561507D01*
X127234010Y-87935374D01*
X126667756Y-88408077D01*
X126322830Y-88750360D01*
X125936080Y-89166561D01*
X125432006Y-89694267D01*
X124890835Y-90249963D01*
X124602665Y-90541057D01*
X124095041Y-91076933D01*
X123605715Y-91639641D01*
X123205945Y-92145187D01*
X123042648Y-92379961D01*
X122699140Y-92857706D01*
X122242944Y-93414418D01*
X121764804Y-93940184D01*
X121699346Y-94007017D01*
X121127291Y-94631867D01*
X120750796Y-95182507D01*
X120533817Y-95737758D01*
X120440314Y-96376445D01*
X120428468Y-96786334D01*
X120490693Y-97494288D01*
X120693193Y-98215771D01*
X121055424Y-98994733D01*
X121596842Y-99875119D01*
X122125208Y-100618979D01*
X122706917Y-101353298D01*
X123218587Y-101878170D01*
X123707583Y-102235696D01*
X124195514Y-102459119D01*
X124795240Y-102524853D01*
X125457528Y-102324881D01*
X126183645Y-101858360D01*
X126974855Y-101124452D01*
X127832422Y-100122315D01*
X127959466Y-99958456D01*
X128392998Y-99415500D01*
X128845399Y-98885231D01*
X129238841Y-98457847D01*
X129346847Y-98350568D01*
X129784954Y-97893917D01*
X130231777Y-97371554D01*
X130408094Y-97144074D01*
X130767823Y-96724180D01*
X131250490Y-96246783D01*
X131752268Y-95814502D01*
X131757385Y-95810476D01*
X132371015Y-95253978D01*
X132932850Y-94614496D01*
X133174105Y-94276927D01*
X133503756Y-93816606D01*
X133786824Y-93517803D01*
X133965515Y-93424459D01*
X134171694Y-93514552D01*
X134174005Y-93782166D01*
X133974515Y-94218672D01*
X133660629Y-94698215D01*
X133112847Y-95463185D01*
X133625930Y-95623476D01*
X133978657Y-95711661D01*
X134191518Y-95674228D01*
X134380097Y-95492553D01*
X134589886Y-95155706D01*
X134742608Y-94700614D01*
X134843979Y-94089908D01*
X134899714Y-93286222D01*
X134915529Y-92252188D01*
X134914298Y-92000168D01*
X134912001Y-91187920D01*
X134922164Y-90612034D01*
X134948641Y-90231408D01*
X134995286Y-90004941D01*
X135065951Y-89891533D01*
X135114653Y-89863139D01*
X135299838Y-89826287D01*
X135425801Y-89915923D01*
X135514169Y-90176757D01*
X135586569Y-90653500D01*
X135613800Y-90895051D01*
X135662394Y-91938097D01*
X135603313Y-93029907D01*
X135447649Y-94075753D01*
X135206497Y-94980907D01*
X135104232Y-95246281D01*
X134637786Y-96386841D01*
X134294489Y-97350763D01*
X134057034Y-98200853D01*
X133908116Y-98999913D01*
X133830429Y-99810749D01*
X133826504Y-99883233D01*
X133810497Y-100743220D01*
X133884867Y-101404676D01*
X134083242Y-101916752D01*
X134439253Y-102328600D01*
X134986531Y-102689371D01*
X135758704Y-103048218D01*
X136082182Y-103180009D01*
X137027353Y-103535044D01*
X137844562Y-103781355D01*
X138615732Y-103930498D01*
X139422791Y-103994033D01*
X140347662Y-103983518D01*
X141336133Y-103921253D01*
X142071614Y-103861077D01*
X142599389Y-103784549D01*
X142952212Y-103649829D01*
X143162838Y-103415078D01*
X143264022Y-103038456D01*
X143288519Y-102478124D01*
X143269082Y-101692243D01*
X143261406Y-101461989D01*
X143239911Y-100686693D01*
X143239810Y-100116795D01*
X143268573Y-99680447D01*
X143333674Y-99305800D01*
X143442585Y-98921005D01*
X143562298Y-98568904D01*
X143959681Y-97271873D01*
X144200192Y-96045029D01*
X144298368Y-94780899D01*
X144268745Y-93372011D01*
X144267677Y-93353846D01*
X144217405Y-92479444D01*
X144186378Y-91840413D01*
X144175538Y-91395133D01*
X144185831Y-91101982D01*
X144218198Y-90919341D01*
X144273584Y-90805589D01*
X144326837Y-90744382D01*
X144498676Y-90656509D01*
X144633507Y-90788005D01*
X144736884Y-91154959D01*
X144814360Y-91773457D01*
X144849978Y-92259676D01*
X144934145Y-93641222D01*
X146684666Y-93068686D01*
X147431986Y-92812000D01*
X148169162Y-92537516D01*
X148810785Y-92278282D01*
X149267974Y-92069126D01*
X149810059Y-91733217D01*
X150381559Y-91283694D01*
X150929485Y-90773769D01*
X151400853Y-90256656D01*
X151742673Y-89785568D01*
X151899737Y-89426126D01*
X152012991Y-89062743D01*
X152110297Y-88848585D01*
X152159566Y-88599345D01*
X152182109Y-88116906D01*
X152180034Y-87444163D01*
X152155448Y-86624010D01*
X152110459Y-85699342D01*
X152047172Y-84713054D01*
X151967696Y-83708041D01*
X151874138Y-82727198D01*
X151768605Y-81813419D01*
X151762271Y-81764229D01*
X151664868Y-81059561D01*
X151537326Y-80205824D01*
X151388920Y-79258625D01*
X151228922Y-78273570D01*
X151141869Y-77754787D01*
X151808199Y-77754787D01*
X152099001Y-79794207D01*
X152311992Y-81377827D01*
X152492662Y-82904272D01*
X152636599Y-84327150D01*
X152739393Y-85600070D01*
X152796631Y-86676639D01*
X152807319Y-87242795D01*
X152821888Y-87898594D01*
X152863436Y-88345488D01*
X152928721Y-88553785D01*
X152951646Y-88565322D01*
X153157771Y-88506259D01*
X153495695Y-88358892D01*
X153610936Y-88301652D01*
X153986940Y-88046165D01*
X154474865Y-87626024D01*
X155018832Y-87097715D01*
X155562964Y-86517725D01*
X156051383Y-85942540D01*
X156377024Y-85505444D01*
X156805819Y-84813274D01*
X157294620Y-83921260D01*
X157814275Y-82892448D01*
X158335630Y-81789882D01*
X158829534Y-80676607D01*
X159266832Y-79615666D01*
X159618373Y-78670106D01*
X159800017Y-78103041D01*
X160032498Y-77400370D01*
X160328494Y-76639842D01*
X160624808Y-75983580D01*
X160630999Y-75971250D01*
X161216568Y-74554425D01*
X161659312Y-72924803D01*
X161953722Y-71110842D01*
X162094284Y-69141002D01*
X162106214Y-68354237D01*
X162106772Y-66395064D01*
X160879009Y-67660247D01*
X160216851Y-68393510D01*
X159513522Y-69257514D01*
X158859582Y-70138652D01*
X158598204Y-70521606D01*
X157901036Y-71556903D01*
X157310003Y-72382137D01*
X156797131Y-73030295D01*
X156334443Y-73534364D01*
X155893963Y-73927332D01*
X155447716Y-74242184D01*
X155437338Y-74248659D01*
X155009328Y-74537830D01*
X154676437Y-74804734D01*
X154513637Y-74987481D01*
X154353320Y-75216698D01*
X154041985Y-75582030D01*
X153630718Y-76029294D01*
X153170604Y-76504308D01*
X152712731Y-76952890D01*
X152337171Y-77295847D01*
X151808199Y-77754787D01*
X151141869Y-77754787D01*
X151066606Y-77306267D01*
X150911244Y-76412321D01*
X150772110Y-75647340D01*
X150658478Y-75066931D01*
X150604943Y-74824338D01*
X150524799Y-74520088D01*
X150472434Y-74464808D01*
X150415797Y-74636395D01*
X150403681Y-74685540D01*
X150339136Y-74980547D01*
X150242000Y-75459506D01*
X150130199Y-76033409D01*
X150096191Y-76212316D01*
X149929733Y-77023921D01*
X149714733Y-77968022D01*
X149465329Y-78991648D01*
X149195661Y-80041832D01*
X148919870Y-81065604D01*
X148652095Y-82009998D01*
X148406478Y-82822043D01*
X148197157Y-83448771D01*
X148091582Y-83721575D01*
X147803524Y-84349780D01*
X147469158Y-85008282D01*
X147183152Y-85516471D01*
X146932471Y-85980727D01*
X146757884Y-86402633D01*
X146700215Y-86664218D01*
X146588440Y-87069074D01*
X146291435Y-87539800D01*
X145866677Y-88007537D01*
X145371643Y-88403427D01*
X145129596Y-88545839D01*
X144757542Y-88717146D01*
X144404233Y-88817100D01*
X143977492Y-88861048D01*
X143385141Y-88864342D01*
X143234682Y-88861384D01*
X142209934Y-88803697D01*
X141212295Y-88683493D01*
X140310263Y-88512834D01*
X139572342Y-88303779D01*
X139214235Y-88153572D01*
X138782606Y-87854872D01*
X138366051Y-87444822D01*
X138235655Y-87277672D01*
X137948821Y-86886053D01*
X137687652Y-86558533D01*
X137593566Y-86453331D01*
X137487272Y-86304909D01*
X137428748Y-86091160D01*
X137413113Y-85754578D01*
X138109643Y-85754578D01*
X138178249Y-86114535D01*
X138457041Y-86611019D01*
X138528590Y-86716909D01*
X138987670Y-87227379D01*
X139599259Y-87627001D01*
X140388346Y-87923668D01*
X141379920Y-88125269D01*
X142598971Y-88239697D01*
X143445992Y-88269719D01*
X144005709Y-88264752D01*
X144402133Y-88206737D01*
X144748360Y-88068468D01*
X145069210Y-87879245D01*
X145672578Y-87384509D01*
X146023688Y-86810165D01*
X146144606Y-86119116D01*
X146145024Y-86070418D01*
X146134751Y-85813883D01*
X146080407Y-85619729D01*
X145946706Y-85476553D01*
X145698358Y-85372949D01*
X145300078Y-85297513D01*
X144716578Y-85238839D01*
X143912570Y-85185524D01*
X143299668Y-85150810D01*
X142028091Y-85088027D01*
X141000691Y-85055709D01*
X140185633Y-85054742D01*
X139551077Y-85086012D01*
X139065189Y-85150406D01*
X138696129Y-85248810D01*
X138612521Y-85281267D01*
X138253607Y-85490405D01*
X138109643Y-85754578D01*
X137413113Y-85754578D01*
X137413012Y-85752396D01*
X137435082Y-85228929D01*
X137460335Y-84857156D01*
X137536726Y-84047026D01*
X137653906Y-83107326D01*
X137801126Y-82101768D01*
X137967637Y-81094066D01*
X138142692Y-80147933D01*
X138315541Y-79327082D01*
X138475435Y-78695225D01*
X138529011Y-78522542D01*
X138703829Y-78073649D01*
X138983764Y-77442379D01*
X139349391Y-76666043D01*
X139781282Y-75781955D01*
X140260010Y-74827425D01*
X140766149Y-73839765D01*
X141280271Y-72856286D01*
X141782949Y-71914302D01*
X142254757Y-71051123D01*
X142676266Y-70304062D01*
X143028052Y-69710429D01*
X143290685Y-69307537D01*
X143396672Y-69173642D01*
X143698950Y-68927508D01*
X143937534Y-68867614D01*
X144057845Y-69002841D01*
X144063056Y-69065203D01*
X143997133Y-69249548D01*
X143814342Y-69630493D01*
X143537147Y-70164542D01*
X143188015Y-70808201D01*
X142862226Y-71390066D01*
X142204584Y-72565091D01*
X141564304Y-73739853D01*
X140958264Y-74881053D01*
X140403342Y-75955388D01*
X139916418Y-76929559D01*
X139514369Y-77770263D01*
X139214075Y-78444201D01*
X139032412Y-78918070D01*
X139011133Y-78988272D01*
X138897937Y-79448707D01*
X138755361Y-80114186D01*
X138596312Y-80915398D01*
X138433691Y-81783032D01*
X138280405Y-82647776D01*
X138149356Y-83440319D01*
X138053449Y-84091349D01*
X138036643Y-84222507D01*
X137947820Y-84945812D01*
X138472378Y-84708339D01*
X138768524Y-84603281D01*
X139142885Y-84534299D01*
X139652134Y-84495933D01*
X140352947Y-84482719D01*
X140801308Y-84483898D01*
X141772231Y-84506685D01*
X142769709Y-84557940D01*
X143740569Y-84632372D01*
X144631639Y-84724686D01*
X145389746Y-84829590D01*
X145961717Y-84941791D01*
X146228413Y-85024116D01*
X146658797Y-85202704D01*
X147153039Y-84281554D01*
X147406516Y-83767726D01*
X147650559Y-83178583D01*
X147897464Y-82476077D01*
X148159527Y-81622163D01*
X148449046Y-80578793D01*
X148778315Y-79307920D01*
X148841347Y-79057671D01*
X149122994Y-77919667D01*
X149339818Y-76995866D01*
X149500600Y-76232810D01*
X149614120Y-75577042D01*
X149689159Y-74975104D01*
X149734498Y-74373540D01*
X149758918Y-73718892D01*
X149764689Y-73436360D01*
X149794518Y-71701387D01*
X148953077Y-69064229D01*
X148559377Y-67815806D01*
X148241815Y-66767783D01*
X147985086Y-65858456D01*
X147773887Y-65026123D01*
X147592914Y-64209080D01*
X147426863Y-63345623D01*
X147260430Y-62374051D01*
X147197411Y-61985540D01*
X147060649Y-61172152D01*
X146919656Y-60400460D01*
X146787348Y-59736764D01*
X146676640Y-59247363D01*
X146632514Y-59085773D01*
X146554643Y-58730099D01*
X146465300Y-58155567D01*
X146371904Y-57420274D01*
X146281875Y-56582313D01*
X146207086Y-55754625D01*
X145970062Y-53462635D01*
X145649504Y-51403671D01*
X145237346Y-49543618D01*
X144725520Y-47848362D01*
X144105960Y-46283788D01*
X143826731Y-45688066D01*
X143082924Y-44371000D01*
X142260087Y-43309585D01*
X141338454Y-42488278D01*
X140298262Y-41891534D01*
X139119744Y-41503810D01*
X138328182Y-41363772D01*
X136721182Y-41291338D01*
X135017801Y-41470838D01*
X133230614Y-41898889D01*
X131372196Y-42572105D01*
X129455123Y-43487102D01*
X128540016Y-43998191D01*
X127691886Y-44530176D01*
X127061142Y-45019143D01*
X126601278Y-45508215D01*
X126265788Y-46040515D01*
X126206899Y-46161579D01*
X126010859Y-46646455D01*
X125911874Y-47099671D01*
X125906348Y-47602396D01*
X125990687Y-48235800D01*
X126091980Y-48755974D01*
X126444677Y-49980489D01*
X126967241Y-51023711D01*
X127690235Y-51944457D01*
X127815922Y-52073698D01*
X128322155Y-52540041D01*
X128791247Y-52856142D01*
X129345389Y-53099077D01*
X129559782Y-53173667D01*
X130109934Y-53319143D01*
X130739466Y-53426434D01*
X131383112Y-53491880D01*
X131975609Y-53511818D01*
X132451691Y-53482588D01*
X132746095Y-53400529D01*
X132796440Y-53355229D01*
X132980821Y-53269318D01*
X133336580Y-53222611D01*
X133514423Y-53219524D01*
X134221452Y-53135364D01*
X134952248Y-52851055D01*
X135732677Y-52351563D01*
X136588609Y-51621852D01*
X137060124Y-51158674D01*
X137576276Y-50607030D01*
X138050407Y-50054919D01*
X138429564Y-49566852D01*
X138659058Y-49210730D01*
X138950961Y-48722396D01*
X139187631Y-48495621D01*
X139364658Y-48533654D01*
X139426573Y-48645411D01*
X139393217Y-48885884D01*
X139201396Y-49284798D01*
X138882031Y-49797635D01*
X138466045Y-50379877D01*
X137984359Y-50987009D01*
X137467895Y-51574513D01*
X137194516Y-51858823D01*
X136334142Y-52620454D01*
X135432815Y-53235212D01*
X134551721Y-53665421D01*
X133983873Y-53835735D01*
X133445024Y-53947689D01*
X133152967Y-55884648D01*
X132985576Y-56921075D01*
X132791641Y-58000073D01*
X132581551Y-59073704D01*
X132365697Y-60094031D01*
X132154469Y-61013115D01*
X131958257Y-61783018D01*
X131787452Y-62355802D01*
X131699964Y-62588411D01*
X131542917Y-63020114D01*
X131528230Y-63314600D01*
X131587244Y-63472797D01*
X131694199Y-63734708D01*
X131844606Y-64180593D01*
X132010493Y-64726176D01*
X132055110Y-64882495D01*
X132256709Y-65533827D01*
X132491737Y-66196680D01*
X132712414Y-66737117D01*
X132731416Y-66778338D01*
X133010074Y-67442966D01*
X133124518Y-67902900D01*
X133076973Y-68175614D01*
X132921488Y-68271216D01*
X132743901Y-68220261D01*
X132550522Y-67982333D01*
X132332102Y-67537640D01*
X132079387Y-66866388D01*
X131783128Y-65948785D01*
X131686006Y-65627958D01*
X131377509Y-64647823D01*
X131083449Y-63851540D01*
X130762444Y-63151033D01*
X130373111Y-62458227D01*
X129874068Y-61685049D01*
X129741766Y-61490026D01*
X129326074Y-60840014D01*
X128929463Y-60148232D01*
X128607341Y-59514753D01*
X128465202Y-59184410D01*
X127836657Y-57894288D01*
X126941707Y-56606909D01*
X125791304Y-55336529D01*
X124840119Y-54465208D01*
X124378147Y-54043084D01*
X123965561Y-53617364D01*
X123678491Y-53267669D01*
X123641317Y-53211407D01*
X123240680Y-52760453D01*
X122699149Y-52505691D01*
X121980344Y-52432626D01*
X121716608Y-52444547D01*
X120953220Y-52499558D01*
X120949929Y-53842003D01*
X120931815Y-54582361D01*
X120868489Y-55168571D01*
X120740165Y-55722917D01*
X120553036Y-56294830D01*
X120109776Y-57476400D01*
X119690037Y-58435093D01*
X119266154Y-59220866D01*
X118810461Y-59883677D01*
X118295294Y-60473484D01*
X118168219Y-60601372D01*
X117686041Y-61057707D01*
X117207026Y-61479608D01*
X116810879Y-61797887D01*
X116697651Y-61877933D01*
X116380021Y-62109237D01*
X116189313Y-62288852D01*
X116164696Y-62337052D01*
X116263487Y-62482076D01*
X116526115Y-62756927D01*
X116901962Y-63115170D01*
X117340410Y-63510369D01*
X117790840Y-63896088D01*
X118202635Y-64225894D01*
X118316062Y-64310637D01*
X118615664Y-64513668D01*
X119103527Y-64826291D01*
X119728962Y-65216811D01*
X120441281Y-65653531D01*
X121083080Y-66040912D01*
X121859524Y-66517736D01*
X122618390Y-67004751D01*
X123300503Y-67462468D01*
X123846681Y-67851398D01*
X124136632Y-68078526D01*
X124654724Y-68491258D01*
X125205549Y-68889660D01*
X125670301Y-69187823D01*
X125672346Y-69188997D01*
X126175177Y-69506496D01*
X126622052Y-69840485D01*
X126956359Y-70143582D01*
X127121485Y-70368403D01*
X127129723Y-70408776D01*
X127021916Y-70515587D01*
X126752014Y-70501999D01*
X126400296Y-70382941D01*
X126110166Y-70219172D01*
X125835204Y-70023218D01*
X125395011Y-69702687D01*
X124846589Y-69299350D01*
X124246941Y-68854979D01*
X124145570Y-68779524D01*
X123450851Y-68279452D01*
X122702916Y-67769632D01*
X121993839Y-67311324D01*
X121439013Y-66978842D01*
X119423547Y-65749836D01*
X117457304Y-64369040D01*
X116466512Y-63594455D01*
X115905648Y-63146892D01*
X115370588Y-62735803D01*
X114926634Y-62410458D01*
X114665535Y-62235626D01*
X114258134Y-61960140D01*
X114003092Y-61680104D01*
X113865867Y-61320648D01*
X113811915Y-60806903D01*
X113810819Y-60736430D01*
X114364113Y-60736430D01*
X114372270Y-61039051D01*
X114429543Y-61182067D01*
X114546965Y-61223812D01*
X114584967Y-61225239D01*
X114877658Y-61310021D01*
X115193111Y-61499748D01*
X115488771Y-61700761D01*
X115733697Y-61748518D01*
X116018290Y-61634142D01*
X116386767Y-61382538D01*
X117245860Y-60684002D01*
X118013097Y-59921827D01*
X118635243Y-59154777D01*
X119059063Y-58441615D01*
X119067262Y-58423646D01*
X119619487Y-57101052D01*
X120037672Y-55880699D01*
X120315024Y-54790990D01*
X120444748Y-53860325D01*
X120420053Y-53117103D01*
X120380813Y-52932299D01*
X120330079Y-52786594D01*
X120247743Y-52718393D01*
X120094324Y-52742828D01*
X119830340Y-52875026D01*
X119416308Y-53130118D01*
X118812748Y-53523234D01*
X118776344Y-53547141D01*
X118008435Y-54139519D01*
X117428156Y-54803304D01*
X117329500Y-54948040D01*
X116978929Y-55435252D01*
X116520071Y-56009558D01*
X116040921Y-56561761D01*
X115947247Y-56663316D01*
X115230446Y-57556447D01*
X114751797Y-58474563D01*
X114477038Y-59496029D01*
X114394035Y-60215868D01*
X114364113Y-60736430D01*
X113810819Y-60736430D01*
X113805133Y-60370778D01*
X113887708Y-59276823D01*
X114152563Y-58301689D01*
X114625390Y-57384342D01*
X115331883Y-56463746D01*
X115551570Y-56222147D01*
X115995539Y-55730330D01*
X116384675Y-55268198D01*
X116666745Y-54899421D01*
X116768672Y-54738518D01*
X117045733Y-54329848D01*
X117459746Y-53873882D01*
X117963882Y-53406170D01*
X118511314Y-52962259D01*
X119055212Y-52577697D01*
X119548749Y-52288032D01*
X119945095Y-52128812D01*
X120197422Y-52135586D01*
X120197512Y-52135642D01*
X120410884Y-52133808D01*
X120538744Y-52059906D01*
X120810982Y-51971869D01*
X121355022Y-51934372D01*
X122079271Y-51943858D01*
X123421844Y-51992098D01*
X123783707Y-52477016D01*
X124017864Y-52753024D01*
X124404565Y-53167778D01*
X124894266Y-53669710D01*
X125437424Y-54207253D01*
X125561100Y-54327029D01*
X126806359Y-55605855D01*
X127794518Y-56793444D01*
X128529016Y-57894355D01*
X129005092Y-58891005D01*
X129249942Y-59452975D01*
X129599352Y-60135768D01*
X129997407Y-60833698D01*
X130229603Y-61205431D01*
X131076450Y-62507289D01*
X131527696Y-60719638D01*
X131920157Y-59102201D01*
X132221602Y-57715473D01*
X132437766Y-56529971D01*
X132574380Y-55516215D01*
X132606427Y-55172401D01*
X132696761Y-54049972D01*
X131960510Y-54110603D01*
X130690646Y-54084753D01*
X129499749Y-53805619D01*
X128412922Y-53292241D01*
X127455271Y-52563655D01*
X126651902Y-51638899D01*
X126027920Y-50537011D01*
X125613174Y-49297363D01*
X125416579Y-48335709D01*
X125334337Y-47562075D01*
X125368760Y-46910503D01*
X125522157Y-46315035D01*
X125734624Y-45829701D01*
X126025570Y-45326826D01*
X126378187Y-44877865D01*
X126828673Y-44454785D01*
X127413224Y-44029554D01*
X128168036Y-43574140D01*
X129129307Y-43060511D01*
X129650355Y-42797189D01*
X131205354Y-42062754D01*
X132599739Y-41499106D01*
X133881622Y-41094024D01*
X135099116Y-40835285D01*
X136300334Y-40710666D01*
X137533387Y-40707945D01*
X137816533Y-40722663D01*
G37*
D12*
%TO.C,SW1*%
X153185000Y-96450000D02*
X153185000Y-97950000D01*
X154435000Y-100450000D02*
X158935000Y-100450000D01*
X158935000Y-93950000D02*
X154435000Y-93950000D01*
X160185000Y-97950000D02*
X160185000Y-96450000D01*
%TO.C,D4*%
X122980000Y-120335000D02*
X122980000Y-123425000D01*
X122980000Y-120335170D02*
G75*
G02*
X128530000Y-121880000I2560000J-1544830D01*
G01*
X128530000Y-121880000D02*
G75*
G02*
X122980000Y-123424830I-2990000J0D01*
G01*
X128040000Y-121880000D02*
G75*
G02*
X123040000Y-121880000I-2500000J0D01*
G01*
X123040000Y-121880000D02*
G75*
G02*
X128040000Y-121880000I2500000J0D01*
G01*
%TO.C,D6*%
X146665000Y-120525000D02*
X146665000Y-123615000D01*
X146665000Y-120525170D02*
G75*
G02*
X152215000Y-122070000I2560000J-1544830D01*
G01*
X152215000Y-122070000D02*
G75*
G02*
X146665000Y-123614830I-2990000J0D01*
G01*
X151725000Y-122070000D02*
G75*
G02*
X146725000Y-122070000I-2500000J0D01*
G01*
X146725000Y-122070000D02*
G75*
G02*
X151725000Y-122070000I2500000J0D01*
G01*
%TO.C,D2*%
X133745567Y-45487545D02*
X133745567Y-48577545D01*
X133745567Y-45487715D02*
G75*
G02*
X139295567Y-47032545I2560000J-1544830D01*
G01*
X139295567Y-47032545D02*
G75*
G02*
X133745567Y-48577375I-2990000J0D01*
G01*
X138805567Y-47032545D02*
G75*
G02*
X133805567Y-47032545I-2500000J0D01*
G01*
X133805567Y-47032545D02*
G75*
G02*
X138805567Y-47032545I2500000J0D01*
G01*
%TO.C,SW2*%
X153335000Y-106150000D02*
X153335000Y-107650000D01*
X154585000Y-110150000D02*
X159085000Y-110150000D01*
X159085000Y-103650000D02*
X154585000Y-103650000D01*
X160335000Y-107650000D02*
X160335000Y-106150000D01*
%TO.C,D5*%
X135930000Y-130605000D02*
X135930000Y-133695000D01*
X135930000Y-130605170D02*
G75*
G02*
X141480000Y-132150000I2560000J-1544830D01*
G01*
X141480000Y-132150000D02*
G75*
G02*
X135930000Y-133694830I-2990000J0D01*
G01*
X140990000Y-132150000D02*
G75*
G02*
X135990000Y-132150000I-2500000J0D01*
G01*
X135990000Y-132150000D02*
G75*
G02*
X140990000Y-132150000I2500000J0D01*
G01*
%TO.C,D3*%
X135370000Y-108885000D02*
X135370000Y-111975000D01*
X135370000Y-108885170D02*
G75*
G02*
X140920000Y-110430000I2560000J-1544830D01*
G01*
X140920000Y-110430000D02*
G75*
G02*
X135370000Y-111974830I-2990000J0D01*
G01*
X140430000Y-110430000D02*
G75*
G02*
X135430000Y-110430000I-2500000J0D01*
G01*
X135430000Y-110430000D02*
G75*
G02*
X140430000Y-110430000I2500000J0D01*
G01*
%TO.C,D1*%
X127212285Y-45532420D02*
X127212285Y-48622420D01*
X127212285Y-45532590D02*
G75*
G02*
X132762285Y-47077420I2560000J-1544830D01*
G01*
X132762285Y-47077420D02*
G75*
G02*
X127212285Y-48622250I-2990000J0D01*
G01*
X132272285Y-47077420D02*
G75*
G02*
X127272285Y-47077420I-2500000J0D01*
G01*
X127272285Y-47077420D02*
G75*
G02*
X132272285Y-47077420I2500000J0D01*
G01*
%TD*%
M02*
