%TF.GenerationSoftware,KiCad,Pcbnew,9.0.2*%
%TF.CreationDate,2025-07-01T09:30:54-07:00*%
%TF.ProjectId,solder,736f6c64-6572-42e6-9b69-6361645f7063,rev?*%
%TF.SameCoordinates,Original*%
%TF.FileFunction,Other,User*%
%FSLAX46Y46*%
G04 Gerber Fmt 4.6, Leading zero omitted, Abs format (unit mm)*
G04 Created by KiCad (PCBNEW 9.0.2) date 2025-07-01 09:30:54*
%MOMM*%
%LPD*%
G01*
G04 APERTURE LIST*
%ADD10C,0.050000*%
G04 APERTURE END LIST*
D10*
%TO.C,SW1*%
X151935000Y-93450000D02*
X152185000Y-93450000D01*
X151935000Y-93700000D02*
X151935000Y-93450000D01*
X151935000Y-100700000D02*
X151935000Y-93700000D01*
X151935000Y-100700000D02*
X151935000Y-100950000D01*
X151935000Y-100950000D02*
X152185000Y-100950000D01*
X152185000Y-93450000D02*
X161185000Y-93450000D01*
X161185000Y-93450000D02*
X161435000Y-93450000D01*
X161185000Y-100950000D02*
X152185000Y-100950000D01*
X161185000Y-100950000D02*
X161435000Y-100950000D01*
X161435000Y-93450000D02*
X161435000Y-93700000D01*
X161435000Y-93700000D02*
X161435000Y-100700000D01*
X161435000Y-100950000D02*
X161435000Y-100700000D01*
%TO.C,D4*%
X122330000Y-118670000D02*
X122330000Y-125090000D01*
X122330000Y-125090000D02*
X128760000Y-125090000D01*
X128760000Y-118670000D02*
X122330000Y-118670000D01*
X128760000Y-125090000D02*
X128760000Y-118670000D01*
%TO.C,D6*%
X146015000Y-118860000D02*
X146015000Y-125280000D01*
X146015000Y-125280000D02*
X152445000Y-125280000D01*
X152445000Y-118860000D02*
X146015000Y-118860000D01*
X152445000Y-125280000D02*
X152445000Y-118860000D01*
%TO.C,D2*%
X133095567Y-43822545D02*
X133095567Y-50242545D01*
X133095567Y-50242545D02*
X139525567Y-50242545D01*
X139525567Y-43822545D02*
X133095567Y-43822545D01*
X139525567Y-50242545D02*
X139525567Y-43822545D01*
%TO.C,SW2*%
X152085000Y-103150000D02*
X152335000Y-103150000D01*
X152085000Y-103400000D02*
X152085000Y-103150000D01*
X152085000Y-110400000D02*
X152085000Y-103400000D01*
X152085000Y-110400000D02*
X152085000Y-110650000D01*
X152085000Y-110650000D02*
X152335000Y-110650000D01*
X152335000Y-103150000D02*
X161335000Y-103150000D01*
X161335000Y-103150000D02*
X161585000Y-103150000D01*
X161335000Y-110650000D02*
X152335000Y-110650000D01*
X161335000Y-110650000D02*
X161585000Y-110650000D01*
X161585000Y-103150000D02*
X161585000Y-103400000D01*
X161585000Y-103400000D02*
X161585000Y-110400000D01*
X161585000Y-110650000D02*
X161585000Y-110400000D01*
%TO.C,D5*%
X135280000Y-128940000D02*
X135280000Y-135360000D01*
X135280000Y-135360000D02*
X141710000Y-135360000D01*
X141710000Y-128940000D02*
X135280000Y-128940000D01*
X141710000Y-135360000D02*
X141710000Y-128940000D01*
%TO.C,D3*%
X134720000Y-107220000D02*
X134720000Y-113640000D01*
X134720000Y-113640000D02*
X141150000Y-113640000D01*
X141150000Y-107220000D02*
X134720000Y-107220000D01*
X141150000Y-113640000D02*
X141150000Y-107220000D01*
%TO.C,D1*%
X126562285Y-43867420D02*
X126562285Y-50287420D01*
X126562285Y-50287420D02*
X132992285Y-50287420D01*
X132992285Y-43867420D02*
X126562285Y-43867420D01*
X132992285Y-50287420D02*
X132992285Y-43867420D01*
%TD*%
M02*
