%TF.GenerationSoftware,KiCad,Pcbnew,9.0.2*%
%TF.CreationDate,2025-07-01T09:30:54-07:00*%
%TF.ProjectId,solder,736f6c64-6572-42e6-9b69-6361645f7063,rev?*%
%TF.SameCoordinates,Original*%
%TF.FileFunction,Legend,Bot*%
%TF.FilePolarity,Positive*%
%FSLAX46Y46*%
G04 Gerber Fmt 4.6, Leading zero omitted, Abs format (unit mm)*
G04 Created by KiCad (PCBNEW 9.0.2) date 2025-07-01 09:30:54*
%MOMM*%
%LPD*%
G01*
G04 APERTURE LIST*
%ADD10C,0.120000*%
G04 APERTURE END LIST*
D10*
%TO.C,R9*%
X135960567Y-55162545D02*
X136290567Y-55162545D01*
X135960567Y-61702545D02*
X135960567Y-55162545D01*
X136290567Y-61702545D02*
X135960567Y-61702545D01*
X138370567Y-61702545D02*
X138700567Y-61702545D01*
X138700567Y-55162545D02*
X138370567Y-55162545D01*
X138700567Y-61702545D02*
X138700567Y-55162545D01*
%TO.C,BT1*%
X127923829Y-72613649D02*
X127923829Y-75073649D01*
X127923829Y-81073649D02*
X127923829Y-81703649D01*
X127923829Y-81703649D02*
X129363829Y-85653649D01*
X130003829Y-70533649D02*
X127923829Y-72613649D01*
X130003829Y-70533649D02*
X133503829Y-70533649D01*
X143903829Y-70533649D02*
X147403829Y-70533649D01*
X147403829Y-70533649D02*
X149483829Y-72613649D01*
X149483829Y-72613649D02*
X149483829Y-75073649D01*
X149483829Y-81073649D02*
X149483829Y-81703649D01*
X149483829Y-81703649D02*
X148043829Y-85653649D01*
X132703829Y-86623649D02*
G75*
G02*
X129378586Y-85661818I-1310000J1700000D01*
G01*
X148043829Y-85653649D02*
G75*
G02*
X144707183Y-86640179I-2030000J730001D01*
G01*
%TO.C,R3*%
X143900000Y-128950000D02*
X150440000Y-128950000D01*
X143900000Y-129280000D02*
X143900000Y-128950000D01*
X143900000Y-131360000D02*
X143900000Y-131690000D01*
X143900000Y-131690000D02*
X150440000Y-131690000D01*
X150440000Y-128950000D02*
X150440000Y-129280000D01*
X150440000Y-131690000D02*
X150440000Y-131360000D01*
%TO.C,R2*%
X126280000Y-109000000D02*
X126280000Y-115540000D01*
X126280000Y-115540000D02*
X126610000Y-115540000D01*
X126610000Y-109000000D02*
X126280000Y-109000000D01*
X128690000Y-109000000D02*
X129020000Y-109000000D01*
X129020000Y-109000000D02*
X129020000Y-115540000D01*
X129020000Y-115540000D02*
X128690000Y-115540000D01*
%TO.C,R1*%
X130650000Y-108140000D02*
X130650000Y-114680000D01*
X130650000Y-114680000D02*
X130980000Y-114680000D01*
X130980000Y-108140000D02*
X130650000Y-108140000D01*
X133060000Y-108140000D02*
X133390000Y-108140000D01*
X133390000Y-108140000D02*
X133390000Y-114680000D01*
X133390000Y-114680000D02*
X133060000Y-114680000D01*
%TO.C,R10*%
X140270567Y-50342545D02*
X140270567Y-56882545D01*
X140270567Y-56882545D02*
X140600567Y-56882545D01*
X140600567Y-50342545D02*
X140270567Y-50342545D01*
X142680567Y-50342545D02*
X143010567Y-50342545D01*
X143010567Y-50342545D02*
X143010567Y-56882545D01*
X143010567Y-56882545D02*
X142680567Y-56882545D01*
%TO.C,R4*%
X144220000Y-113290000D02*
X144220000Y-113620000D01*
X144220000Y-116030000D02*
X144220000Y-115700000D01*
X150760000Y-113290000D02*
X144220000Y-113290000D01*
X150760000Y-113620000D02*
X150760000Y-113290000D01*
X150760000Y-115700000D02*
X150760000Y-116030000D01*
X150760000Y-116030000D02*
X144220000Y-116030000D01*
%TD*%
M02*
