%TF.GenerationSoftware,KiCad,Pcbnew,9.0.2*%
%TF.CreationDate,2025-07-01T09:30:54-07:00*%
%TF.ProjectId,solder,736f6c64-6572-42e6-9b69-6361645f7063,rev?*%
%TF.SameCoordinates,Original*%
%TF.FileFunction,Copper,L2,Bot*%
%TF.FilePolarity,Positive*%
%FSLAX46Y46*%
G04 Gerber Fmt 4.6, Leading zero omitted, Abs format (unit mm)*
G04 Created by KiCad (PCBNEW 9.0.2) date 2025-07-01 09:30:54*
%MOMM*%
%LPD*%
G01*
G04 APERTURE LIST*
%TA.AperFunction,ComponentPad*%
%ADD10C,2.000000*%
%TD*%
%TA.AperFunction,ComponentPad*%
%ADD11R,1.800000X1.800000*%
%TD*%
%TA.AperFunction,ComponentPad*%
%ADD12C,1.800000*%
%TD*%
%TA.AperFunction,ComponentPad*%
%ADD13C,1.600000*%
%TD*%
%TA.AperFunction,SMDPad,CuDef*%
%ADD14R,1.270000X5.080000*%
%TD*%
%TA.AperFunction,SMDPad,CuDef*%
%ADD15C,17.800000*%
%TD*%
%TA.AperFunction,ViaPad*%
%ADD16C,7.500000*%
%TD*%
%TA.AperFunction,ViaPad*%
%ADD17C,0.600000*%
%TD*%
%TA.AperFunction,Conductor*%
%ADD18C,0.200000*%
%TD*%
G04 APERTURE END LIST*
D10*
%TO.P,SW1,1,1*%
%TO.N,Net-(R10-Pad1)*%
X153435000Y-94950000D03*
X159935000Y-94950000D03*
%TO.P,SW1,2,2*%
%TO.N,Net-(BT1-+)*%
X153435000Y-99450000D03*
X159935000Y-99450000D03*
%TD*%
D11*
%TO.P,D4,1,K*%
%TO.N,Net-(BT1--)*%
X124270000Y-121880000D03*
D12*
%TO.P,D4,2,A*%
%TO.N,Net-(D4-A)*%
X126810000Y-121880000D03*
%TD*%
D11*
%TO.P,D6,1,K*%
%TO.N,Net-(BT1--)*%
X147955000Y-122070000D03*
D12*
%TO.P,D6,2,A*%
%TO.N,Net-(D6-A)*%
X150495000Y-122070000D03*
%TD*%
D11*
%TO.P,D2,1,K*%
%TO.N,Net-(BT1--)*%
X135035567Y-47032545D03*
D12*
%TO.P,D2,2,A*%
%TO.N,Net-(D2-A)*%
X137575567Y-47032545D03*
%TD*%
D10*
%TO.P,SW2,1,1*%
%TO.N,Net-(R1-Pad2)*%
X153585000Y-104650000D03*
X160085000Y-104650000D03*
%TO.P,SW2,2,2*%
%TO.N,Net-(BT1-+)*%
X153585000Y-109150000D03*
X160085000Y-109150000D03*
%TD*%
D11*
%TO.P,D5,1,K*%
%TO.N,Net-(BT1--)*%
X137220000Y-132150000D03*
D12*
%TO.P,D5,2,A*%
%TO.N,Net-(D5-A)*%
X139760000Y-132150000D03*
%TD*%
D11*
%TO.P,D3,1,K*%
%TO.N,Net-(BT1--)*%
X136660000Y-110430000D03*
D12*
%TO.P,D3,2,A*%
%TO.N,Net-(D3-A)*%
X139200000Y-110430000D03*
%TD*%
D11*
%TO.P,D1,1,K*%
%TO.N,Net-(BT1--)*%
X128502285Y-47077420D03*
D12*
%TO.P,D1,2,A*%
%TO.N,Net-(D1-A)*%
X131042285Y-47077420D03*
%TD*%
D13*
%TO.P,R9,1*%
%TO.N,Net-(R10-Pad1)*%
X137330567Y-62242545D03*
%TO.P,R9,2*%
%TO.N,Net-(D1-A)*%
X137330567Y-54622545D03*
%TD*%
D14*
%TO.P,BT1,1,+*%
%TO.N,Net-(BT1-+)*%
X149688829Y-78073649D03*
X127718829Y-78073649D03*
D15*
%TO.P,BT1,2,-*%
%TO.N,Net-(BT1--)*%
X138703829Y-78073649D03*
%TD*%
D13*
%TO.P,R3,1*%
%TO.N,Net-(D5-A)*%
X143360000Y-130320000D03*
%TO.P,R3,2*%
%TO.N,Net-(R1-Pad2)*%
X150980000Y-130320000D03*
%TD*%
%TO.P,R2,1*%
%TO.N,Net-(D4-A)*%
X127650000Y-108460000D03*
%TO.P,R2,2*%
%TO.N,Net-(R1-Pad2)*%
X127650000Y-116080000D03*
%TD*%
%TO.P,R1,1*%
%TO.N,Net-(D3-A)*%
X132020000Y-107600000D03*
%TO.P,R1,2*%
%TO.N,Net-(R1-Pad2)*%
X132020000Y-115220000D03*
%TD*%
%TO.P,R10,1*%
%TO.N,Net-(R10-Pad1)*%
X141640567Y-49802545D03*
%TO.P,R10,2*%
%TO.N,Net-(D2-A)*%
X141640567Y-57422545D03*
%TD*%
%TO.P,R4,1*%
%TO.N,Net-(D6-A)*%
X151300000Y-114660000D03*
%TO.P,R4,2*%
%TO.N,Net-(R1-Pad2)*%
X143680000Y-114660000D03*
%TD*%
D16*
%TO.N,*%
X156870000Y-47570000D03*
D17*
%TO.N,Net-(BT1-+)*%
X129050000Y-86040000D03*
X130580000Y-87610000D03*
%TD*%
D18*
%TO.N,Net-(BT1--)*%
X128502285Y-49220000D02*
X128502285Y-47077420D01*
X135035567Y-47032545D02*
X133879442Y-45876420D01*
X128502285Y-47918949D02*
X128502285Y-49220000D01*
X133879442Y-45876420D02*
X130544814Y-45876420D01*
X130544814Y-45876420D02*
X128502285Y-47918949D01*
%TO.N,Net-(BT1-+)*%
X149688829Y-76046470D02*
X149688829Y-78073649D01*
X149688829Y-80813649D02*
X149688829Y-78073649D01*
X161420000Y-107815000D02*
X161420000Y-100935000D01*
X127718829Y-78073649D02*
X127718829Y-76046470D01*
X127718829Y-84708829D02*
X129050000Y-86040000D01*
X160085000Y-109150000D02*
X161420000Y-107815000D01*
X159935000Y-99450000D02*
X157617500Y-97132500D01*
X153585000Y-109150000D02*
X160085000Y-109150000D01*
X153435000Y-99450000D02*
X151117500Y-97132500D01*
X151117500Y-97132500D02*
X149688829Y-95703829D01*
X149688829Y-95703829D02*
X149688829Y-78073649D01*
X161420000Y-100935000D02*
X159935000Y-99450000D01*
X157617500Y-97132500D02*
X151117500Y-97132500D01*
X130580000Y-87610000D02*
X142892478Y-87610000D01*
X142892478Y-87610000D02*
X149688829Y-80813649D01*
X127718829Y-78073649D02*
X127718829Y-84708829D01*
%TO.N,Net-(BT1--)*%
X138703829Y-78073649D02*
X124270000Y-92507478D01*
X128502285Y-67872105D02*
X128502285Y-49220000D01*
X136660000Y-110430000D02*
X136660000Y-110775000D01*
X136660000Y-110775000D02*
X147955000Y-122070000D01*
X124270000Y-92507478D02*
X124270000Y-121880000D01*
X147955000Y-122070000D02*
X147300000Y-122070000D01*
X138703829Y-78073649D02*
X128502285Y-67872105D01*
X134540000Y-132150000D02*
X137220000Y-132150000D01*
X147300000Y-122070000D02*
X137220000Y-132150000D01*
X124270000Y-121880000D02*
X134540000Y-132150000D01*
%TO.N,Net-(D1-A)*%
X137330567Y-53365702D02*
X131042285Y-47077420D01*
X137330567Y-54622545D02*
X137330567Y-53365702D01*
%TO.N,Net-(D2-A)*%
X138475567Y-54257545D02*
X141640567Y-57422545D01*
X138475567Y-47932545D02*
X138475567Y-54257545D01*
X137575567Y-47032545D02*
X138475567Y-47932545D01*
%TO.N,Net-(D3-A)*%
X132020000Y-107600000D02*
X136370000Y-107600000D01*
X136370000Y-107600000D02*
X139200000Y-110430000D01*
%TO.N,Net-(D4-A)*%
X127650000Y-108460000D02*
X125910000Y-110200000D01*
X125910000Y-120980000D02*
X126810000Y-121880000D01*
X125910000Y-110200000D02*
X125910000Y-120980000D01*
%TO.N,Net-(D5-A)*%
X139760000Y-132150000D02*
X141530000Y-132150000D01*
X141530000Y-132150000D02*
X143360000Y-130320000D01*
%TO.N,Net-(D6-A)*%
X151300000Y-114660000D02*
X151300000Y-114810000D01*
X151300000Y-114810000D02*
X150495000Y-115615000D01*
X150495000Y-115615000D02*
X150495000Y-122070000D01*
%TO.N,Net-(R1-Pad2)*%
X131160000Y-116080000D02*
X132020000Y-115220000D01*
X143650000Y-104650000D02*
X143450000Y-104650000D01*
X127650000Y-116080000D02*
X131160000Y-116080000D01*
X132020000Y-115220000D02*
X129270000Y-112470000D01*
X143680000Y-104680000D02*
X143650000Y-104650000D01*
X143680000Y-114660000D02*
X143680000Y-104680000D01*
X150980000Y-130320000D02*
X149294000Y-128634000D01*
X149294000Y-128634000D02*
X149294000Y-120274000D01*
X153585000Y-104650000D02*
X143650000Y-104650000D01*
X160085000Y-104650000D02*
X153585000Y-104650000D01*
X149294000Y-120274000D02*
X143680000Y-114660000D01*
X143450000Y-104650000D02*
X129270000Y-104650000D01*
X129270000Y-112470000D02*
X129270000Y-104650000D01*
%TO.N,Net-(R10-Pad1)*%
X152432545Y-62242545D02*
X137330567Y-62242545D01*
X142741567Y-50903545D02*
X142741567Y-57878595D01*
X142741567Y-57878595D02*
X138377617Y-62242545D01*
X159935000Y-94950000D02*
X153435000Y-94950000D01*
X153435000Y-94950000D02*
X153435000Y-63245000D01*
X141640567Y-49802545D02*
X142741567Y-50903545D01*
X138377617Y-62242545D02*
X137330567Y-62242545D01*
X153435000Y-63245000D02*
X152432545Y-62242545D01*
%TD*%
M02*
