M48
; DRILL file {KiCad 9.0.2} date 2025-07-03T20:52:26-0700
; FORMAT={-:-/ absolute / metric / decimal}
; #@! TF.CreationDate,2025-07-03T20:52:26-07:00
; #@! TF.GenerationSoftware,Kicad,Pcbnew,9.0.2
; #@! TF.FileFunction,Plated,1,2,PTH
FMAT,2
METRIC
; #@! TA.AperFunction,Plated,PTH,ViaDrill
T1C0.300
; #@! TA.AperFunction,Plated,PTH,ComponentDrill
T2C0.800
; #@! TA.AperFunction,Plated,PTH,ComponentDrill
T3C0.900
; #@! TA.AperFunction,Plated,PTH,ComponentDrill
T4C1.100
; #@! TA.AperFunction,Plated,PTH,ViaDrill
T5C7.000
%
G90
G05
T1
X129.05Y-86.04
X130.58Y-87.61
T2
X127.65Y-108.46
X127.65Y-116.08
X132.02Y-107.6
X132.02Y-115.22
X134.83Y-57.63
X138.23Y-57.63
X141.06Y-57.65
X143.36Y-130.32
X143.68Y-114.66
X144.46Y-57.65
X150.98Y-130.32
X151.3Y-114.66
T3
X124.27Y-121.88
X126.81Y-121.88
X128.502Y-47.077
X131.042Y-47.077
X135.036Y-47.033
X136.66Y-110.43
X137.22Y-132.15
X137.576Y-47.033
X139.2Y-110.43
X139.76Y-132.15
X147.955Y-122.07
X150.495Y-122.07
T4
X153.435Y-94.95
X153.435Y-99.45
X153.585Y-104.65
X153.585Y-109.15
X159.935Y-94.95
X159.935Y-99.45
X160.085Y-104.65
X160.085Y-109.15
T5
X156.87Y-47.57
M30
